<?xml version="1.0" encoding="UTF-8"?>
<svg id="Warstwa_1" xmlns="http://www.w3.org/2000/svg" version="1.1" viewBox="0 0 373 308.72">
  <!-- Generator: Adobe Illustrator 30.4.0, SVG Export Plug-In . SVG Version: 2.1.4 Build 226)  -->
  <defs>
    <style>
      .st0 {
        fill: #080b0a;
      }

      .st1 {
        fill: #7b1713;
      }

      .st2 {
        fill: #a42220;
      }

      .st3 {
        fill: #030304;
      }

      .st4 {
        fill: #0d0708;
      }
    </style>
  </defs>
  <g>
    <path class="st0" d="M206.73,295.89c.67.11,1.26-.29,1.39-1.16,5.34,3.62,12.08,2.85,17.18-1.09,2.75-2.12,4.58-5.03,4.83-8.34.27-3.62-.68-7.27-3.39-9.57-3.38-2.87-8.05-3.37-12.1-2.23-.56.16-.88.07-1.11-.24s-.3-.87-.14-1.33c2.07-5.93,3.57-11.77,4.08-18.12l2.26-28.21c.72-8.99,0-17.6-2.32-26.21l-4.91-18.18c-.09-.33-.08-.6,0-.81.12-.34.52-.21.69-.33-.08.66.09,1.29.35,2,1.93,5.24,3,10.57,4.47,15.99l2.22,8.18,4.56,4.31,3.36,3.61.68.7,1.55,1.54c1.24,1.23,2.29,2.71,3.72,3.69l.87.96,1.88,1.66c.37.32.73.6,1.36,1.01-1.51,2.18-2.47,4.7-2.49,7.45,0,1.56.71,2.95,1.16,4.28.38,1.14,1.03,1.26,1.78,1.7,3.77,2.23,10.52-1.55,14.05-5.42s3.78-9.79-.24-13.35c-1.82-1.61-4.31-1.89-6.65-1.27.05-1.2-.28-1.83-.81-2.55l-5.67-7.77-8.8-11.32-10.37-12.6c-3.23-3.92-6.34-7.63-9.34-11.74l-4.37-4.86c-.99-1.1-1.88-2.12-3.12-2.96-.85-4.07-1.62-8.07-1.68-12.22-4.27.58-8.27,1.12-12.28.96l-6.86-.26c-.32-.01-.75-.45-.97-.37-.31.12-.61.46-.65.91l-.58,6.64c-.11,1.31.06,3.01-.72,4.1l-2.14,2.99-10.29,13.3-6.73,10.3-18.72,26.97c-.96,1.39-1.56,2.55-2.8,3.67-.6.53-.66,1.18-1.8.94-2.83-.6-6.13.14-8.06,2.6-2.44,3.11-1.8,7.65.57,10.39l1.22.98c.97.78,1.51,1.66,2.71,2.16,2.1.87,4.35,1.12,6.38-.24,1.62-1.09,2.97-3.05,3.2-5.46l.25-2.63c3.78-5.26,8.06-9.71,12.34-14.44l6.69-7.4c.56-5.83,1.35-11.3,2.65-16.9.07-.3.66-.32.77-.22l-1.5,10.74c-1.24,8.81-1.7,17.46-1.65,26.4.03,5.41.07,10.52.82,15.86l2.87,14.69c1.25,6.4,6.88,16.27,11.13,21.13.37.43-.03,1.85-.52,2.08-3.14-.27-6.43.25-9.24,1.93-3.15,1.88-4.89,5.78-3.89,9.58.77,2.97,2.76,5.22,5.03,6.69,2.59,1.68,5.52,2.55,8.79,2.57,4.47.03,8.9-.57,13.28-1.44,4.9-.98,6.24-5.99,7.31-11.03.32-1.49,1.24-3.31.87-4.93l-3.4-14.88h.62s3.41,12.48,3.41,12.48c1.26,4.59,3.33,8.65,5.64,12.53-2.43-1.8-4.01-4.48-5.28-7.4-1.56,6.81-2.56,13.47-9.3,14.69-4.51.82-8.86,1.38-13.56,1.39l-5.01,4.41-.35,1.08c-.05.16-.84.09-.84-.17l-.11-6.36c0-.43-1.2-.98-1.57-.76l-4.96,3.07c-1.5.93-2.33,3.06-3.09,2.48-.17-.13-.29-.48-.22-.83l1.04-5.08c.36-1.76,1.01-3,2.21-4.71-2.92-.2-5.64-.09-8.42.61-1.74.44-2.08,2.11-2.88,1.43-.14-.12-.36-.43-.16-.75l1.36-2.12c1.89-2.94,4.65-5,8.02-5.55.64-7.66,7.18-10.63,14.29-10.18-2.77-3.36-5.31-6.42-6.75-10.45l-4.88-13.58c-4.52-14.4-3.79-30.38-2.91-45.8-1.78,1.07-2.67,2.62-3.91,4l-9.5,10.56c-1.4,1.56-3.33,3.44-4.03,5.37-.1,3.33-.99,5.51-2.97,7.94-1.67,2.05-2.56,5.13-3.49,7.67-.36.97,1.08,3.34,0,3.85-1.27.6-1.91-6.3-2.22-10.19-2.81,2.37-4.5,5.38-6.52,8.23.2.98.39,1.89.11,2.73-.12.36-.66.37-.84.21-.1-.09-.23-.2-.29-.5-.76-4.53-.44-8.99,1.22-13.29.11-.3-.45-.84-.66-.82-.02,0-4.56,3.71-5.87,5.6l-.66,2.52c-.1.37-.36.45-.58.51-1.16.3-.45-1.74-.14-3.6.76-4.45,2.2-8.51,4.54-12.28-.18-2.27.92-3.91,1.81-6-9.65,5.25-18.19,11.42-25.88,19.07l-.59.98c-.11.18-.9.04-.88-.33l.24-3.71c-.18-3.61-1.88-6.82-4.5-9.14-3.12-2.78-7.05-4.06-11.14-4.51-11.36-1.26-21.88,2.59-31.81,8.3l-3.88,2.81c-.26.19-1.15.31-1.17-.15-.11-2.82-.76-5.28-1.5-7.97-1.72-6.25-3.87-12.13-7.38-17.45-3.66-5.53-8.26-9.98-14.14-12.53-7.23-3.13-16.94-1.71-24.18,1.56-.41.19-.74.25-1.08.05-.16-.09-.35-.4-.16-.74l5.43-7.98c4.43-6.51,8.74-12.79,13.9-18.71,5.45-6.26,11.36-11.62,17.42-17.2,4.7-4.33,9.38-8.2,14.77-11.52,8.87-5.47,18.02-9.94,27.8-13.28,7.05-2.4,14.16-3.68,21.48-4.35l8.19-.26c4.75,13.9,12.86,22.93,23.57,31.52,10.91,8.75,24.4,15.73,38.19,15.32l7.63-9.75,1.17-9.38c.07-.56-.08-1.12-.3-1.31s-.69-.09-.97-.15l-10.61-2.5c-9.92-2.34-19.51-8.77-24.67-18.29l-5.21-9.61-3.01-1.72c-13.59-7.78-24.2-16.54-30.48-32.18-1.26-3.13-3.55-7.4-2.08-8.13.48-.24.75.21,1.13.59,8.98,8.98,21.12,17.47,33.48,17.41l-9.87-9.16c-6.47-6.01-14.37-16.42-18.19-24.65-7.3-15.72-10.62-33.09-9.98-50.58.15-4.07.29-7.76.85-11.74.09-.64.56-.86,1-.8.56.07.37.62.52,1.03,4.76,12.97,14.44,27.19,23.56,36.98l6.78,7.28c4.88,5.24,14.51,13.27,21.06,14.72-4.92-10.45-10.17-21.47-11.15-32.68.83-.23,2.17-.17,2.6.46,1.91,2.82,3.81,5.33,6.07,7.76l8.74,9.39c1.7,1.83,3.53,3.3,5.52,4.72,15.01-5.31,29.71-5.39,45-1.95l3.28,1.34c9.57-7.73,17.75-17.15,24.68-27.54,1.34.18,1.78,1.43,1.6,2.66-1.26,8.59-3.89,16.65-7.1,24.6-1.13,2.8-2.46,5.11-4,7.94,10.39-6.09,19.43-13.36,28.19-21.47,10.12-9.37,18.82-20.7,22.36-34.68.13-.5.66-.82.98-.8,1.02.05,1.71,7.39,1.84,11.12.9,25.93-6.74,51.21-22.99,70.54-3.47,4.12-7.68,6.8-12.12,9.74,7.9-.43,14.91-3.23,21.36-7.36,3.6-2.31,6.52-5.26,8.91-8.91.3-.46,1.01-.35,1.29-.09s.54.86.24,1.38l-8.06,14.13c-3.35,5.87-7.33,11.05-12.1,15.65-5.32,5.14-11.29,8.84-17.5,12.53l-3.76,2.24-4.9,9.61c-6.67,10.73-16.84,17.76-28.69,20.27.62,4.02.36,8.41,2.14,11.52,1.31,2.3,3.81,3.99,5.32,5.86,1.98.05,3.83-.43,5.59-1.06,12.38-4.43,26.11-12.14,35.34-22.05l7.99-8.58c4.33-4.65,11.09-14.23,11.73-20.37.04-.39.28-.78.51-.91.19-.11.55.23.86.28l18.38,3c13.72,2.24,26.53,7.37,38.37,15.17,8.37,5.51,16.08,11.7,22.99,19.13l7.69,8.27c4.27,4.6,15.34,20.19,12.74,23.04-.37.4-.81-.07-1.26-.17-6.91-1.49-14.03-.63-20.44,2.38-6.02,2.83-10.48,7.42-13.57,13.57-2.52,5.02-3.63,10.46-2.08,15.98l2.7,9.66c.15.54-.21.91-.47,1.02-.5.2-.58-.46-.84-.63-8.61-5.51-22.28-9.44-32.18-8.98-6.91.32-13.41,2.44-18.95,6.67-5,3.82-4.71,8.34-5.94,7.36-.74-.6.76-1.74-.66-3.1-7.53-7.19-15.47-13.56-24.05-19.3-5.83-3.79-11.82-6.84-18.75-8.29,3.9,5.33,7.81,9.83,11.12,15.2,4.76-.47,8.59,2.87,9.32,7.75.21,1.42.85,2.19,1.35,3.5l2.95,7.7c.35.93,2.42,1.65,1.72,2.67-.16.23-.6.41-.96.11l-1.52-1.27c-1.81-2.35-4.67-5.56-5.83-4.15-.35.43.02.89.07,1.42l.9,8.74c-.15.55-1.62.53-1.96,0l-3.54-5.57c-.21-.25-1.19.34-1.19.7l-.13,8.37c0,.43-.3.85-.43,1.07-.11.17-.67.27-.83,0l-3.84-6.39c-.41-.69-.91-1.17-1.81-1.04-2.14.31-4.26-.67-5.37-2.89-1.8-3.61-1.62-8.35.34-12.05l-4.81-4.54-11.26-11.79.71,9.68-.06,7.08-2.35,29.87c-.48,6.07-1.88,11.49-3.89,17.42,8.41-1.62,15.85,2.01,16.66,11.06,9.68.4,12.25,8.21,9.5,6.83-3.19-1.6-6.9-2.56-10.62-1.24,3.1,2.25,5.95,4.33,7.2,7.83.05.43-.61,1.18-.89,1.35-.23.14-.63-.47-.97-.63-2.88-1.41-5.99-2.29-9.36-2.37,1.79,2.61,3.58,4.88,4.02,7.96.05.35-.73.63-.9.42l-.71-.82c-2.3-1.45-4.82-2.11-7.35-2.99-.85-.29-1.7-.38-2.42-1.15-4.31.82-8.42-.32-12.23-2.28ZM225.47,57.83l2.87-4.39.72-1.86c3.89-8.54,6.95-17.54,8.57-27.34-7.38,10.53-14.22,18.19-23.84,26.09-.21.17-.32.85-.52.92-.77.29-2.36-1.37-5.34-2-14.02-2.95-27.61-2.87-41.32,1.51-2.04.65-3.2.59-4.97-.97-6.09-5.34-11.53-11.46-16.71-17.78-.22-.82-.53-1.79-1.47-2.4-.27-.17-.81.46-.94.75-.23.47,0,1,.18,1.62,2.65,9.34,6,18.2,10.32,26.78.27.54.64.83.99,1.02.05.59.15,1.46-.18,1.84-.48.54-1.18.46-1.82.27-7.74-2.36-15.85-9.52-21.77-15.57-10.37-10.58-22.34-25.32-28.1-39.1l-1.08-2.57c-.29.35-1.07.89-1.09,1.64-.15,7.31.09,14.41.71,21.68.51,5.91,1.54,11.39,3.15,17.05,1.81,6.35,3.73,12.41,6.66,18.3s6.58,11.59,10.64,16.87l3.88,4.12,14.38,13.41c-.38,1.04-.97,1.23-1.94,1.2-11.82-.4-20.53-5.4-29.51-12.93-2.05-1.72-2.02-3.52-3.47-3.17-.34.08-.57.95-.28,1.43,1.36,2.3,2.42,4.57,3.61,7.02,3.87,7.9,9.6,14.16,16.28,19.42,4.68,3.68,9.27,7.01,14.71,9.26,1.38,3.34,2.61,6.58,4.76,9.4l5.38,7.09c2.3,3.03,5.45,5.21,8.55,7.28l7.01,3.38c.88.42,1.52-.03,2.12.12l9.48,2.3c9.47,2.3,19.36,1.69,28.81-.79,9.57-2.51,17.75-8.13,23.75-16.41,3.06-4.23,5.15-8.77,7.35-13.54,1.23.29,1.89-.48,2.8-.97,15.86-8.66,23.36-16.61,32.54-32.64,1.29-2.25,3.43-2.77,2.75-3.83-.19-.29-.69-.4-1.09-.02-2.59,2.45-5.48,4.02-8.55,5.7-6.61,3.63-13.76,5.45-21.09,5.06.13-.2.06-.73.02-.98.71.13,1.34-.11,2.02-.52,3.36-2.05,6.46-4.32,9.4-7.01,3.44-3.15,5.95-6.74,8.46-10.76,4.57-7.34,8.34-14.88,11.25-23.15l.62-2.43c2.92-9.25,4.41-18.87,4.69-28.79.1-4.82.18-9.3-.64-14.4-4.5,14.36-13.84,25.3-24.49,34.88-8.31,7.48-16.91,14.24-26.52,19.62-.59.33-1.09.56-1.65.36-.42-.15-.75-.67-1.05-1.04ZM213.77,169.5l-2.11.13,1.65,2.85,9.02,11.03,4.59,5.67,7.1,8.75c.95,1.17,1.98.96,3.01,1.19,3.46.8,6.66,1.96,9.87,3.42,5,2.28,9.42,5.27,13.95,8.56,6.85,4.98,13.18,10.19,19.42,16.44,5-8.02,16.13-11.9,25.03-11.93,10.48-.04,20.77,3,30.11,7.99l.46-.22-2.03-7.92c-1.45-5.68-.19-11.27,2.41-16.38,6.98-13.76,20.86-19.14,35.28-16.4-.45-2.3-1.37-4.32-2.5-6.37-2.91-5.28-6.32-9.89-10.26-14.4-7.65-8.74-15.94-16.58-25.15-23.41-12.87-9.55-27.22-15.88-42.67-18.49l-18.3-3.1c-1.41,5.24-3.72,9.78-6.93,14.05-6.56,8.73-13.9,16.7-22.4,23.36-8.94,7-19.09,11.88-29.57,15.18ZM86.69,223.53c4.04.66,7.63,1.97,10.59,4.59,3.14,2.84,5,6.47,5.13,11.3,5.09-4.66,9.86-9.14,15.62-12.56l17.18-10.22,6.94-3.2,15.32-22.05,6.97-10.36c.76-1.13,1.2-2.23,2.09-3.39l3.1-3.99c-4.01-.3-7.69-.5-11.57-1.59-8.76-2.46-16.69-6.73-24.04-12.38-11.49-8.83-20.71-18.41-25.88-32.92l-7.83.28c-7.01.77-13.8,1.98-20.55,4.27-8.5,2.89-16.4,6.71-24.26,11.19-6.62,3.78-12.43,8.31-18.09,13.54-5.45,5.04-10.72,9.85-15.75,15.4s-9.36,11.66-13.68,17.93l-5.49,7.97c8.17-3.09,18.11-3.99,25.53.07,11.08,6.06,16.99,17.66,20.3,30.21.59,2.22,1.26,4.17,1.36,6.58,3.69-2.93,7.61-4.86,11.85-6.72,8-3.5,16.36-5.09,25.15-3.96ZM137.61,220.16l2.71-4.22c-3.3,1.07-5.94,2.76-8.66,4.27,2.27-.22,3.81-.93,5.95-.05ZM128.39,222.29l-.15.16.15.16.15-.16-.15-.16ZM336.08,223.71l-.42.12c.11.31.47.19.42-.12Z"/>
    <g>
      <path class="st1" d="M208.12,294.74c-.13.87-.72,1.27-1.39,1.16-.61-.31-.91-.79-1.3-1.43-2.32-3.89-4.39-7.94-5.64-12.53l-3.41-12.47-1.05-4.86c-.17-.77-.16-1.46-.01-2.12.4-.07,1.37-.21,1.54.52,1.95,8.6,4.07,16.91,7.48,25,.99,2.35,2.47,4.91,3.78,6.74Z"/>
      <path class="st2" d="M238.67,237.15c.16-.43.66-1.04.55-1.54-2.18-4.1-1.91-7.26.77-11.02-.09-.79-.07-1.82-.44-2.53-5.46-5.97-11.34-11.19-17.37-16.6l-2.98-11.28-4.26-13.89c-.15-.48-.53-.64-.89-.67s-.61.31-.84.47c-.17.12-.57,0-.69.33-.08.21-.09.48,0,.81l4.91,18.18c2.32,8.6,3.05,17.22,2.32,26.21l-2.26,28.21c-.51,6.35-2,12.19-4.08,18.12-.16.47-.1,1.02.14,1.33s.55.4,1.11.24c4.05-1.14,8.72-.64,12.1,2.23,2.71,2.3,3.66,5.95,3.39,9.57-.25,3.31-2.09,6.22-4.83,8.34-5.1,3.94-11.85,4.71-17.18,1.09-1.32-1.83-2.79-4.39-3.78-6.74-3.41-8.08-5.53-16.4-7.48-25-.17-.73-1.14-.59-1.54-.52-.21.04-.6-.08-.7.27-.05.17-.08.47-.02.74l1.16,5.95,3.4,14.88c.37,1.62-.55,3.43-.87,4.93-1.08,5.05-2.41,10.05-7.31,11.03-4.38.88-8.81,1.47-13.28,1.44-3.27-.02-6.2-.89-8.79-2.57.73-.59,2.13.89,2.8-.36.33-.62.08-1.35-.57-1.58l-2.06-.72c-3.26-2.09-4.59-7.96-1.61-10.33s6.94-3.36,10.74-2.45l1.23-3.16c.16-.4.69-.66.69-1.09,0-.39-.09-.96-.44-1.32-2.66-2.82-4.51-6.12-6.55-9.45-2.2-3.61-3.69-7.23-4.77-11.41-1.8-6.98-2.58-13.89-3.1-21.16-.61-8.4-.39-16.34.4-24.74.68-7.14.79-14.04,2.04-21.07.12-.65-.74-1.22-1.15-1.01-.26.13-.51.35-.69.77-.1-.1-.7-.08-.77.22-1.3,5.61-2.09,11.07-2.65,16.9l-6.69,7.4c-4.28,4.73-8.57,9.18-12.34,14.44l-.25,2.63c-.23,2.41-1.59,4.37-3.2,5.46-2.03,1.37-4.29,1.11-6.38.24-1.2-.5-1.74-1.38-2.71-2.16l-1.22-.98c.59-.06,1.24-.22,1.48-.75.48-1.1-1.51-2.79-1.31-4.9.33-3.48,3.26-5.91,6.41-5.43l3.09.46c-.17-1.28,1.21-1.39,1.6-1.84,1.94-3.13,3.62-6.07,5.91-8.9,4.27-5.26,7.89-10.74,11.72-16.42,4.65-6.88,9.12-13.54,14.05-20.18l7.37-9.93c.93-1.26,1.78-2.19,2.15-4.01.58-2.89.56-5.89.69-8.97h5.62c.45,0,.78-.16.92-.54.07-.18.08-.46.07-.78,4.01.15,8.02-.38,12.28-.96.07,4.16.83,8.15,1.68,12.22,1.24.84,2.13,1.86,3.12,2.96l4.37,4.86c3,4.11,6.12,7.82,9.34,11.74l10.37,12.6,8.8,11.32,5.67,7.77c.53.72.86,1.35.81,2.55,2.34-.62,4.83-.34,6.65,1.27,4.02,3.56,3.81,9.43.24,13.35s-10.28,7.65-14.05,5.42Z"/>
      <path class="st1" d="M168.9,299.17c-2.27-1.47-4.25-3.72-5.03-6.69-.99-3.79.74-7.7,3.89-9.58,2.82-1.68,6.1-2.2,9.24-1.93.49-.23.89-1.65.52-2.08-4.25-4.85-9.89-14.73-11.13-21.13l-2.87-14.69c-.75-5.33-.79-10.45-.82-15.86-.05-8.94.41-17.59,1.65-26.4l1.5-10.74c.18-.42.43-.64.69-.77.41-.2,1.27.36,1.15,1.01-1.25,7.03-1.36,13.93-2.04,21.07-.79,8.4-1.01,16.33-.4,24.74.53,7.27,1.31,14.18,3.1,21.16,1.08,4.18,2.56,7.8,4.77,11.41,2.03,3.33,3.88,6.63,6.55,9.45.34.36.44.93.44,1.32,0,.43-.54.69-.69,1.09l-1.23,3.16c-3.8-.91-7.67,0-10.74,2.45s-1.65,8.24,1.61,10.33l2.06.72c.65.23.9.96.57,1.58-.67,1.26-2.07-.23-2.8.36Z"/>
      <path class="st1" d="M189.4,152.05c.01.32,0,.6-.07.78-.14.38-.46.54-.92.54h-5.62c-.13,3.08-.11,6.08-.69,8.97-.37,1.82-1.22,2.76-2.15,4.01l-7.37,9.93c-4.92,6.64-9.4,13.3-14.05,20.18-3.83,5.67-7.45,11.15-11.72,16.42-2.29,2.82-3.97,5.77-5.91,8.9-.4.45-1.77.56-1.6,1.84l-3.09-.46c-3.15-.47-6.08,1.95-6.41,5.43-.2,2.11,1.79,3.8,1.31,4.9-.23.53-.88.69-1.48.75-2.37-2.74-3.01-7.28-.57-10.39,1.93-2.46,5.23-3.2,8.06-2.6,1.13.24,1.2-.41,1.8-.94,1.25-1.12,1.84-2.28,2.8-3.67l18.72-26.97,6.73-10.3,10.29-13.3,2.14-2.99c.78-1.09.6-2.79.72-4.1l.58-6.64c.04-.45.34-.79.65-.91.22-.09.65.36.97.37l6.86.26Z"/>
      <path class="st1" d="M238.67,237.15c-.75-.44-1.4-.55-1.78-1.7-.45-1.33-1.17-2.72-1.16-4.28.02-2.75.98-5.27,2.49-7.45-.63-.41-.99-.68-1.36-1.01-.34-.82-.88-1.9-1.88-1.66l-.87-.96c-.08-1.11-1.04-1.69-1.78-2.44-.61-.62-1.09-1.34-1.94-1.25l-1.55-1.54c.16-.24.15-.74-.06-.81-.19-.07-.49.03-.62.11l-3.36-3.61-4.56-4.31-2.22-8.18c-1.47-5.42-2.54-10.75-4.47-15.99-.26-.7-.43-1.33-.35-2,.23-.16.5-.5.84-.47s.74.19.89.67l4.26,13.89,2.98,11.28c6.03,5.41,11.91,10.63,17.37,16.6.37.71.35,1.74.44,2.53-2.68,3.76-2.95,6.92-.77,11.02.12.51-.39,1.11-.55,1.54Z"/>
      <path class="st4" d="M195.32,262.48c-.15.66-.15,1.35.01,2.12l1.05,4.86h-.62s-1.16-5.96-1.16-5.96c-.05-.28-.03-.58.02-.74.1-.36.49-.24.7-.27Z"/>
      <path class="st2" d="M234.11,220.09c-1.43-.97-2.49-2.46-3.72-3.69.85-.09,1.33.63,1.94,1.25.74.75,1.71,1.32,1.78,2.44Z"/>
      <path class="st2" d="M236.86,222.72l-1.88-1.66c1-.24,1.54.84,1.88,1.66Z"/>
      <path class="st2" d="M228.84,214.87l-.68-.7c.13-.07.42-.17.62-.11.21.07.22.57.06.81Z"/>
    </g>
    <g>
      <path class="st2" d="M275.12,47.2c-.73-.28-1.27-.1-1.59.75-3.65,9.78-8.18,19-13.87,27.58l-3.08,4.01c-3.64,4.03-7.85,7.28-12.4,10.03-.69.41-.92.79-.81,1.51.04.25.11.78-.02.98-.18.28-.17,1.36.2,1.4,9.89.89,18.93-2.91,27.31-8.54.13-.43.58-.17.46.22-9.17,16.04-16.67,23.98-32.54,32.64-.91.5-1.56,1.27-2.8.97-2.2,4.76-4.29,9.31-7.35,13.54-5.99,8.28-14.18,13.9-23.75,16.41-9.45,2.48-19.34,3.09-28.81.79l-9.48-2.3c.28-1.01-.1-1.65-.96-2.05l-7.07-3.3c-4.53-2.85-8.04-6.86-11.43-11.1-2.47-3.09-4.49-6.29-5.96-10.06-.62-1.6-1.56-2.63-3.01-3.43l-6.08-3.35c-5.58-3.81-10.74-8.04-15.25-13.26-3.52-4.08-6.01-8.69-8.76-13.36-.27-.46-.53-.86-.15-1.31,8.98,7.54,17.69,12.54,29.51,12.93.97.03,1.56-.16,1.94-1.2.39.36,1.02.48,1.43.39.36-.08.88-1.01.51-1.37l-16.93-16.12c-5.31-5.81-9.52-12.74-12.85-20.05-2.9-6.36-4.73-12.91-6.65-19.62-2.6-9.09-2.86-22.97-3.12-33.03,0-.36.18-.61.35-.69,5.76,13.78,17.73,28.52,28.1,39.1,5.93,6.05,14.04,13.21,21.77,15.57.64.2,1.34.27,1.82-.27.34-.38.23-1.25.18-1.84.29.04.58-.03.75-.12.21-.11.49-.57.29-.98-4.1-8.68-7.71-17.49-10.13-26.66,5.17,6.32,10.62,12.44,16.71,17.78,1.77,1.56,2.93,1.62,4.97.97,13.71-4.38,27.3-4.46,41.32-1.51,2.98.63,4.57,2.29,5.34,2,.2-.08.31-.75.52-.92,9.62-7.9,16.45-15.56,23.84-26.09-1.63,9.8-4.68,18.8-8.57,27.34-.39-.15-1.15-.24-1.38.14l-2.95,4.8c-.21.35-.28.64-.12.99s.66.2.87.32c.3.37.63.89,1.05,1.04.56.21,1.07-.03,1.65-.36,9.61-5.39,18.2-12.15,26.52-19.62,10.66-9.58,19.99-20.52,24.49-34.88.82,5.09.74,9.58.64,14.4-.28,9.92-1.77,19.54-4.69,28.79ZM208.3,91.97c3.83-2.73,5.37-7.43,4.06-12.19-.48-1.73-1.11-3.77-2.84-4.51-1.57-.67-3.33.37-4.57,1.61-3.56,3.58-5.99,8.38-7.39,13.41-.33,1.16-.01,1.7.57,2.54.36.53.27,1.63.73,1.99,1.83,1.45,6.72-.91,9.45-2.85ZM185.78,95.31c1.75-1.4,2.4-3.69,1.47-5.7-2.04-4.38-5.46-10.31-9.6-11.36-2.54-.65-4.75.87-5.19,3.57-1.25,7.73,4.82,13.13,11.52,15.11.45-.85,1.12-1.08,1.8-1.62ZM208.73,125.53l9.97-2.94c4.64-1.37,8.8-3.96,11.99-7.95,3.73-4.66,5.25-11.48,3.5-17.4-1.11-3.75-4.7-5.75-7.94-6.58-4.22-1.09-7.93.45-10.81,3.7-6.24,7.03-11.45,18.59-12.72,28.29-.19,1.46.23,2.74,1.68,3.03,1.32.27,2.83.28,4.33-.16ZM182.08,123.98c-1.31-8.12-4.4-15.73-9.69-21.64-4.18-4.67-11.25-11.53-16.75-8.9-1.85.89-3.33,2.62-4.32,4.61-3.8,7.56-3.36,16.87,1.15,24,3.46,5.47,14.15,6.58,20.58,6.34,3.24-.12,7.74-1.38,9.03-4.4ZM197.42,144.7c.79-.59-1.07-3.55-5.02-3.4-3.16.12-6.85,2.8-6.6,3.61.15.46.63.38.97.13,7.83-5.9,9.72.35,10.65-.33Z"/>
      <path class="st1" d="M102.13,7.21c-.17.09-.36.33-.35.69.27,10.06.52,23.94,3.12,33.03,1.92,6.71,3.74,13.26,6.65,19.62,3.33,7.3,7.54,14.24,12.85,20.05l16.93,16.12c.37.36-.15,1.29-.51,1.37-.41.09-1.04-.02-1.43-.39l-14.38-13.41-3.88-4.12c-4.06-5.28-7.63-10.8-10.64-16.87s-4.85-11.95-6.66-18.3c-1.61-5.65-2.64-11.13-3.15-17.05-.62-7.27-.86-14.36-.71-21.68.02-.74.8-1.29,1.09-1.64l1.08,2.57Z"/>
      <path class="st1" d="M107.94,85.97c-.38.45-.12.85.15,1.31,2.75,4.67,5.23,9.28,8.76,13.36,4.5,5.22,9.67,9.45,15.25,13.26l6.08,3.35c1.45.8,2.38,1.84,3.01,3.43,1.47,3.77,3.49,6.97,5.96,10.06,3.4,4.24,6.9,8.26,11.43,11.1l7.07,3.3c.86.4,1.24,1.03.96,2.05-.6-.15-1.24.3-2.12-.12l-7.01-3.38c-3.1-2.07-6.25-4.25-8.55-7.28l-5.38-7.09c-2.14-2.82-3.38-6.06-4.76-9.4-5.44-2.25-10.03-5.58-14.71-9.26-6.68-5.26-12.41-11.52-16.28-19.42-1.2-2.45-2.25-4.72-3.61-7.02-.28-.48-.06-1.35.28-1.43,1.44-.35,1.41,1.45,3.47,3.17Z"/>
      <path class="st1" d="M275.12,47.2l-.62,2.43c-2.91,8.27-6.68,15.81-11.25,23.15-2.5,4.01-5.02,7.61-8.46,10.76-2.93,2.69-6.03,4.96-9.4,7.01-.68.41-1.31.66-2.02.52-.11-.72.13-1.1.81-1.51,4.55-2.74,8.77-6,12.4-10.03l3.08-4.01c5.69-8.58,10.22-17.8,13.87-27.58.32-.85.85-1.03,1.59-.75Z"/>
      <path class="st1" d="M144.93,32.02c2.42,9.17,6.03,17.97,10.13,26.66.2.41-.08.87-.29.98-.18.1-.46.16-.75.12-.34-.19-.72-.48-.99-1.02-4.32-8.58-7.68-17.44-10.32-26.78-.18-.62-.4-1.15-.18-1.62.14-.28.68-.92.94-.75.93.6,1.25,1.57,1.47,2.4Z"/>
      <path class="st1" d="M271.33,85.14c.12-.39-.32-.65-.46-.22-8.38,5.63-17.43,9.42-27.31,8.54-.37-.03-.38-1.12-.2-1.4,7.33.39,14.48-1.42,21.09-5.06,3.07-1.69,5.96-3.25,8.55-5.7.4-.38.9-.27,1.09.02.68,1.06-1.46,1.58-2.75,3.83Z"/>
      <path class="st1" d="M229.05,51.58l-.72,1.86-2.87,4.39c-.21-.12-.71.04-.87-.32s-.09-.64.12-.99l2.95-4.8c.23-.38.99-.29,1.38-.14Z"/>
      <path class="st3" d="M182.08,123.98c-1.3,3.02-5.79,4.28-9.03,4.4-6.43.24-17.12-.86-20.58-6.34-4.51-7.13-4.94-16.43-1.15-24,1-1.98,2.47-3.72,4.32-4.61,5.49-2.63,12.57,4.23,16.75,8.9,5.29,5.91,8.38,13.51,9.69,21.64Z"/>
      <path class="st3" d="M208.73,125.53c-1.5.44-3.01.43-4.33.16-1.45-.3-1.87-1.57-1.68-3.03,1.27-9.7,6.48-21.26,12.72-28.29,2.89-3.25,6.59-4.79,10.81-3.7,3.24.83,6.82,2.83,7.94,6.58,1.76,5.92.24,12.74-3.5,17.4-3.2,3.99-7.35,6.58-11.99,7.95l-9.97,2.94Z"/>
      <path class="st3" d="M208.3,91.97c-2.73,1.95-7.62,4.3-9.45,2.85-.46-.36-.37-1.47-.73-1.99-.58-.84-.89-1.38-.57-2.54,1.4-5.02,3.83-9.82,7.39-13.41,1.24-1.24,3-2.28,4.57-1.61,1.73.74,2.37,2.78,2.84,4.51,1.31,4.76-.23,9.46-4.06,12.19Z"/>
      <path class="st3" d="M185.78,95.31c-.68.54-1.35.77-1.8,1.62-6.69-1.98-12.76-7.38-11.52-15.11.44-2.71,2.65-4.22,5.19-3.57,4.14,1.06,7.56,6.98,9.6,11.36.93,2,.28,4.3-1.47,5.7Z"/>
      <path class="st4" d="M197.42,144.7c-.92.68-2.82-5.57-10.65.33-.34.26-.83.33-.97-.13-.25-.8,3.44-3.48,6.6-3.61,3.95-.15,5.81,2.81,5.02,3.4Z"/>
    </g>
  </g>
  <g>
    <g>
      <path class="st2" d="M86.69,223.53c-8.78-1.13-17.15.47-25.15,3.96-4.25,1.86-8.16,3.79-11.85,6.72-.11-2.41-.78-4.36-1.36-6.58-3.31-12.55-9.22-24.15-20.3-30.21-7.42-4.06-17.36-3.16-25.53-.07l5.49-7.97c4.32-6.27,8.6-12.31,13.68-17.93s10.3-10.36,15.75-15.4c5.66-5.24,11.47-9.76,18.09-13.54,7.85-4.48,15.75-8.3,24.26-11.19,6.75-2.29,13.53-3.5,20.55-4.27l7.83-.28c5.17,14.51,14.38,24.09,25.88,32.92,7.35,5.65,15.28,9.92,24.04,12.38,3.88,1.09,7.56,1.29,11.57,1.59l-3.1,3.99c-.9,1.15-1.33,2.25-2.09,3.39l-6.97,10.36-15.32,22.05-6.94,3.2-17.18,10.22c-5.76,3.43-10.53,7.9-15.62,12.56-.14-4.84-1.99-8.47-5.13-11.3-2.96-2.62-6.56-3.94-10.59-4.59ZM25.29,182.4l.15.77c.05.25.84.48,1.16.2l10.19-8.86c2.97-2.58,5.73-5.3,9.03-7.42l13.85-8.88,12.19-7.04c4.8-2.77,9.8-4.69,14.88-6.74,2.1-.84,4.18-1.34,6.38-1.54l8.68,9.16c3.44,3.63,7.28,6.45,11.3,9.32,7.69,5.49,15.7,9.73,24.44,12.99,4.7,1.75,9.09,3.57,14.04,4.36.48.08.89-.13,1.06-.61.11-.31.06-.68-.07-1.05-.14-.42-.31-.62-.83-.79-7.55-2.4-14.7-5.3-21.89-8.81-12.9-6.31-24.24-15.04-33.98-26.02l-.5-.6c.07-.16.05-.96-.17-1.15-3.25-.31-6.33.46-9.43,1.71-13.23,5.33-28,14.09-40.15,22.12-7.63,5.03-14.44,10.82-20.57,17.78-.18.2-.2.38-.22.57-.02.2.29.39.47.52Z"/>
      <path class="st1" d="M95.36,140.85l.5.6c-.58.95-.27,1.38.4,2.09,5.34,5.57,10.69,10.99,16.98,15.31l3.6,2.47c6.86,4.71,14.13,8.19,21.78,11.17,4.71,1.83,9.16,3.53,13.94,4.58.12.37.18.74.07,1.05-.17.48-.58.69-1.06.61-4.95-.79-9.34-2.61-14.04-4.36-8.74-3.26-16.75-7.5-24.44-12.99-4.02-2.87-7.86-5.69-11.3-9.32l-8.68-9.16c-2.19.2-4.28.69-6.38,1.54-5.09,2.05-10.08,3.97-14.88,6.74l-12.19,7.04-13.85,8.88c-3.31,2.12-6.06,4.83-9.03,7.42l-10.19,8.86c-.33.28-1.11.06-1.16-.2l-.15-.77c.12-.82.77-1.12,1.36-1.66,5.1-4.62,10-9.2,15.32-13.51,2.29-1.85,4.68-3.05,7.09-4.63l9.9-6.48,11.19-6.45c5.57-3.21,11.37-5.57,17.33-7.77,2.65-.98,5.3-1.4,7.88-1.05Z"/>
      <path class="st4" d="M95.36,140.85c-2.58-.35-5.23.08-7.88,1.05-5.96,2.2-11.76,4.56-17.33,7.77l-11.19,6.45-9.9,6.48c-2.41,1.58-4.8,2.77-7.09,4.63-5.32,4.32-10.22,8.89-15.32,13.51-.59.54-1.24.84-1.36,1.66-.18-.14-.49-.33-.47-.52.02-.18.04-.36.22-.57,6.12-6.97,12.94-12.75,20.57-17.78,12.15-8.02,26.92-16.78,40.15-22.12,3.1-1.25,6.18-2.02,9.43-1.71.23.19.25.99.17,1.15Z"/>
      <path class="st4" d="M152.57,177.07c-4.78-1.05-9.23-2.75-13.94-4.58-7.65-2.98-14.92-6.46-21.78-11.17l-3.6-2.47c-6.29-4.32-11.64-9.74-16.98-15.31-.67-.7-.99-1.14-.4-2.09,9.74,10.98,21.09,19.71,33.98,26.02,7.19,3.52,14.35,6.41,21.89,8.81.53.17.69.36.83.79Z"/>
    </g>
    <g>
      <path class="st1" d="M213.77,169.5l6.92,8.57c5.01,6.03,9.6,12.14,14.97,17.88l11.11,4.19c.51.19.92.64.9,1.19-.01.41-.37.86-.76,1.21-3.21-1.46-6.41-2.63-9.87-3.42-1.04-.24-2.06-.02-3.01-1.19l-7.1-8.75-4.59-5.67-9.02-11.03-1.65-2.85,2.11-.13Z"/>
      <path class="st2" d="M246.91,202.55c.39-.36.74-.81.76-1.21.02-.55-.39-1-.9-1.19l-11.11-4.19c-5.37-5.74-9.95-11.85-14.97-17.88l-6.92-8.57c10.49-3.3,20.64-8.18,29.57-15.18,8.5-6.66,15.84-14.62,22.4-23.36,3.21-4.27,5.52-8.81,6.93-14.05l18.3,3.1c15.45,2.61,29.79,8.94,42.67,18.49,9.2,6.83,17.5,14.66,25.15,23.41,3.94,4.51,7.36,9.12,10.26,14.4,1.13,2.05,2.05,4.07,2.5,6.37-14.42-2.74-28.29,2.65-35.28,16.4-2.59,5.11-3.86,10.7-2.41,16.38l2.03,7.92s.04.17.19.33c.05.32-.3.43-.42.12-.03-.02-.12-.08-.24-.23-9.34-5-19.63-8.03-30.11-7.99-8.9.03-20.03,3.91-25.03,11.93-6.24-6.25-12.58-11.46-19.42-16.44-4.53-3.29-8.95-6.28-13.95-8.56ZM226.18,171.9c-.32.65-.59.97-.6,1.45-.01.39.41,1.11.89.97,6.6-1.95,12.33-5.32,18.26-8.93,7.14-4.34,13.68-9.11,19.68-15.13l6.39-6.42c1.95-1.95,4.17-4.91,6.98-5.42,7.46-1.37,14.87.03,22.18,1.21l5.18,1.46c5.89,1.66,11.35,4.09,16.83,6.98l9.31,4.89c5.93,3.55,10.9,8.35,15.14,14.01.44.58,1.07.82,1.63.45.51-.34.11-1.2.1-1.71,0-.73.13-1-.32-1.56-5.65-7.03-14.68-14.3-22.43-18.42-6.64-3.53-13.33-6.22-20.53-8.27-8.95-2.55-18.03-3.45-27.24-2.32-1.07.13-2.78.81-3.51,1.46l-7.88,7.08c-6.16,5.53-12.18,10.81-18.86,15.67-6.8,4.94-13.91,8.93-21.2,12.56Z"/>
      <path class="st1" d="M348.15,165.7c0,.51.41,1.37-.1,1.71-.57.38-1.2.14-1.63-.45-4.24-5.66-9.22-10.46-15.14-14.01l-9.31-4.89c-5.48-2.88-10.94-5.32-16.83-6.98l-5.18-1.46c-7.32-1.19-14.72-2.58-22.18-1.21-2.81.52-5.03,3.47-6.98,5.42l-6.39,6.42c-6,6.03-12.54,10.79-19.68,15.13-5.94,3.61-11.66,6.98-18.26,8.93-.47.14-.9-.58-.89-.97.02-.48.29-.8.6-1.45,15.04-4.88,27.41-15.27,39.58-26.12l6.73-6.64,3.68-2.71c8.06-1.32,16-.54,23.97,1.02l4.68,1.26c8.47,2.27,16.2,5.95,23.91,10.29,6.88,3.87,13.08,8.48,17.98,15.03.44.58.62,1.42,1.43,1.68Z"/>
      <path class="st4" d="M348.15,165.7c-.81-.25-1-1.09-1.43-1.68-4.9-6.55-11.1-11.16-17.98-15.03-7.72-4.34-15.45-8.01-23.91-10.29l-4.68-1.26c-7.97-1.56-15.91-2.34-23.97-1.02l-3.68,2.71-6.73,6.64c-12.18,10.85-24.54,21.24-39.58,26.12,7.29-3.63,14.4-7.62,21.2-12.56,6.68-4.85,12.7-10.14,18.86-15.67l7.88-7.08c.73-.66,2.44-1.33,3.51-1.46,9.21-1.13,18.28-.23,27.24,2.32,7.2,2.05,13.89,4.75,20.53,8.27,7.76,4.12,16.78,11.39,22.43,18.42.45.56.32.83.32,1.56Z"/>
    </g>
  </g>
</svg>